<?xml version="1.0" encoding="utf-8"?>
<!-- Generator: Adobe Illustrator 25.2.1, SVG Export Plug-In . SVG Version: 6.00 Build 0)  -->
<svg version="1.1" id="Layer_1" xmlns="http://www.w3.org/2000/svg" xmlns:xlink="http://www.w3.org/1999/xlink" x="0px" y="0px"
	 viewBox="0 0 600 247.06" style="enable-background:new 0 0 600 247.06;" xml:space="preserve">
<style type="text/css">
	.st0{fill:none;stroke:#DDDDDD;stroke-miterlimit:10;}
	.st1{fill:none;}
	.st2{display:none;fill:none;stroke:#DDDDDD;stroke-miterlimit:10;}
	.st3{fill:none;stroke:#888888;stroke-miterlimit:10;}
	.st4{font-family:'Monaco';}
	.st5{font-size:12px;}
	.st6{display:none;fill:none;stroke:#888888;stroke-miterlimit:10;}
	.st7{fill:none;stroke:#333333;stroke-width:2;stroke-miterlimit:10;}
	.st8{display:none;}
</style>
<path class="st0" d="M34.93,12.22H593.6v209.5H34.93V12.22z"/>
<g>
	<g transform="translate(0.5,300.5)">
		<path pointer-events="none" class="st1" d="M34.43-78.78L34.43-78.78L34.43-78.78L34.43-78.78z"/>
		<g>
			<g pointer-events="none">
				<line class="st0" x1="54.68" y1="-288.28" x2="54.68" y2="-78.78"/>
				<line class="st0" x1="76.33" y1="-288.28" x2="76.33" y2="-78.78"/>
				<line class="st0" x1="100.07" y1="-288.28" x2="100.07" y2="-78.78"/>
				<line class="st0" x1="123.82" y1="-288.28" x2="123.82" y2="-78.78"/>
				<line class="st0" x1="147.56" y1="-288.28" x2="147.56" y2="-78.78"/>
				<line class="st0" x1="170.6" y1="-288.28" x2="170.6" y2="-78.78"/>
				<line class="st0" x1="195.05" y1="-288.28" x2="195.05" y2="-78.78"/>
				<line class="st0" x1="218.79" y1="-288.28" x2="218.79" y2="-78.78"/>
				<line class="st0" x1="241.83" y1="-288.28" x2="241.83" y2="-78.78"/>
				<line class="st0" x1="266.28" y1="-288.28" x2="266.28" y2="-78.78"/>
				<line class="st0" x1="289.32" y1="-288.28" x2="289.32" y2="-78.78"/>
				<line class="st0" x1="313.07" y1="-288.28" x2="313.07" y2="-78.78"/>
				<line class="st0" x1="337.51" y1="-288.28" x2="337.51" y2="-78.78"/>
				<line class="st0" x1="359.85" y1="-288.28" x2="359.85" y2="-78.78"/>
				<line class="st0" x1="383.6" y1="-288.28" x2="383.6" y2="-78.78"/>
				<line class="st0" x1="407.34" y1="-288.28" x2="407.34" y2="-78.78"/>
				<line class="st0" x1="431.09" y1="-288.28" x2="431.09" y2="-78.78"/>
				<line class="st0" x1="454.13" y1="-288.28" x2="454.13" y2="-78.78"/>
				<line class="st0" x1="478.57" y1="-288.28" x2="478.57" y2="-78.78"/>
				<line class="st0" x1="502.32" y1="-288.28" x2="502.32" y2="-78.78"/>
				<line class="st0" x1="525.36" y1="-288.28" x2="525.36" y2="-78.78"/>
				<line class="st0" x1="549.8" y1="-288.28" x2="549.8" y2="-78.78"/>
				<line class="st0" x1="572.85" y1="-288.28" x2="572.85" y2="-78.78"/>
			</g>
		</g>
		<path pointer-events="none" class="st2" d="M34.43-68.3"/>
	</g>
</g>
<g>
	<g transform="translate(0.5,0.5)">
		<path pointer-events="none" class="st1" d="M34.43,11.72L34.43,11.72L34.43,11.72L34.43,11.72z"/>
		<g>
			<g pointer-events="none">
				<line class="st0" x1="34.43" y1="221.22" x2="593.1" y2="221.22"/>
				<line class="st0" x1="34.43" y1="168.85" x2="593.1" y2="168.85"/>
				<line class="st0" x1="34.43" y1="116.47" x2="593.1" y2="116.47"/>
				<line class="st0" x1="34.43" y1="64.1" x2="593.1" y2="64.1"/>
				<line class="st0" x1="34.43" y1="11.72" x2="593.1" y2="11.72"/>
			</g>
		</g>
		<path pointer-events="none" class="st2" d="M34.43,22.2"/>
	</g>
</g>
<path pointer-events="none" class="st1" d="M34.93,221.72L34.93,221.72L34.93,221.72L34.93,221.72z"/>
<line class="st3" x1="55.18" y1="221.72" x2="55.18" y2="225.21"/>
<line class="st3" x1="76.83" y1="221.72" x2="76.83" y2="225.21"/>
<line class="st3" x1="100.57" y1="221.72" x2="100.57" y2="225.21"/>
<line class="st3" x1="124.32" y1="221.72" x2="124.32" y2="225.21"/>
<line class="st3" x1="148.06" y1="221.72" x2="148.06" y2="225.21"/>
<line class="st3" x1="171.1" y1="221.72" x2="171.1" y2="225.21"/>
<line class="st3" x1="195.55" y1="221.72" x2="195.55" y2="225.21"/>
<line class="st3" x1="219.29" y1="221.72" x2="219.29" y2="225.21"/>
<line class="st3" x1="242.33" y1="221.72" x2="242.33" y2="225.21"/>
<line class="st3" x1="266.78" y1="221.72" x2="266.78" y2="225.21"/>
<line class="st3" x1="289.82" y1="221.72" x2="289.82" y2="225.21"/>
<line class="st3" x1="313.57" y1="221.72" x2="313.57" y2="225.21"/>
<line class="st3" x1="338.01" y1="221.72" x2="338.01" y2="225.21"/>
<line class="st3" x1="360.35" y1="221.72" x2="360.35" y2="225.21"/>
<line class="st3" x1="384.1" y1="221.72" x2="384.1" y2="225.21"/>
<line class="st3" x1="407.84" y1="221.72" x2="407.84" y2="225.21"/>
<line class="st3" x1="431.59" y1="221.72" x2="431.59" y2="225.21"/>
<line class="st3" x1="454.63" y1="221.72" x2="454.63" y2="225.21"/>
<line class="st3" x1="479.07" y1="221.72" x2="479.07" y2="225.21"/>
<line class="st3" x1="502.82" y1="221.72" x2="502.82" y2="225.21"/>
<line class="st3" x1="525.86" y1="221.72" x2="525.86" y2="225.21"/>
<line class="st3" x1="550.3" y1="221.72" x2="550.3" y2="225.21"/>
<line class="st3" x1="573.35" y1="221.72" x2="573.35" y2="225.21"/>
<g>
	<text transform="matrix(1 0 0 1 148.9829 241.086)" class="st4 st5">Jul-19</text>
</g>
<g>
	<text transform="matrix(1 0 0 1 299.6504 241.086)" class="st4 st5">2020</text>
</g>
<g>
	<text transform="matrix(1 0 0 1 20.5478 241.086)" class="st4 st5">2019</text>
</g>
<g>
	<text transform="matrix(1 0 0 1 433.5049 241.086)" class="st4 st5">Jul-20</text>
</g>
<line class="st3" x1="34.93" y1="221.72" x2="593.6" y2="221.72"/>
<path pointer-events="none" class="st6" d="M-88,285.03"/>
<path pointer-events="none" class="st1" d="M34.93,12.22L34.93,12.22L34.93,12.22L34.93,12.22z"/>
<line class="st3" x1="34.93" y1="221.72" x2="31.44" y2="221.72"/>
<line class="st3" x1="34.93" y1="169.35" x2="31.44" y2="169.35"/>
<line class="st3" x1="34.93" y1="116.97" x2="31.44" y2="116.97"/>
<line class="st3" x1="34.93" y1="64.6" x2="31.44" y2="64.6"/>
<line class="st3" x1="34.93" y1="12.22" x2="31.44" y2="12.22"/>
<g>
	<text transform="matrix(1 0 0 1 7 174.4415)" class="st4 st5">100</text>
</g>
<g>
	<text transform="matrix(1 0 0 1 7 122.0665)" class="st4 st5">200</text>
</g>
<g>
	<text transform="matrix(1 0 0 1 7 69.6905)" class="st4 st5">300</text>
</g>
<g>
	<text transform="matrix(1 0 0 1 7 17.3155)" class="st4 st5">400</text>
</g>
<line class="st3" x1="34.93" y1="221.72" x2="34.93" y2="12.22"/>
<path pointer-events="none" class="st6" d="M-88-14.97"/>
<g>
	<path class="st7" d="M34.58,220.85l5.42-3.14l5.42-1.05l10.85,1.05l5.42,1.05l5.42-1.57l5.42,0.52l5.42-1.05l5.42,2.1l5.39-1.05
		l5.42,3.14l5.42-3.67l5.42,0.52h5.42l5.42-1.57l5.42,4.19l5.42-2.1l5.42,2.62l5.42-0.52l5.42-1.57l5.42,0.52l5.42-1.57l5.42,0.52
		l5.42,1.05l5.42-3.67l5.42,4.71l5.42-1.57l5.42,0.52l10.85-3.14l5.42,4.19l5.42-1.05l5.42-0.52l5.42-1.05l5.42,1.57l5.42-2.1
		l5.42,1.05l5.42-1.05l5.42-5.76l5.42,5.76l5.42-1.57l5.42,1.57l5.42-2.1l5.46,3.14l5.42,1.57l5.42-1.57l5.42-1.05l5.42-3.14
		l5.42,3.67l5.42,2.62l5.42-1.05l5.42,0.52l5.42-2.1l5.42-5.24l5.42-4.71l5.42,9.95l5.42-3.67l5.42,1.05l5.42,3.14l5.42-2.62
		l5.42,1.57l5.39-9.43l5.42-148.75l5.42-24.62l5.42,53.42l5.42,48.19l5.42,15.19l5.42,41.38l5.42-0.52l5.42,14.14l5.42,1.05
		l5.42-4.19l5.42,3.67l5.42-12.05l5.42-2.1l5.42-2.1l5.42,8.9l5.42,1.05l5.42,9.43l5.42-10.48l5.42,13.09l5.42-7.33l5.42,5.24
		l5.42-8.9l5.42,12.05l5.42-2.1l5.42-4.71l5.42,5.24l5.42-2.1l5.42,3.67l5.42-14.14l5.42,16.24l5.42,0.52l5.42,2.62l5.42-3.67
		l5.46,0.52l5.42,1.57l5.42,1.57l5.42,1.05l5.42-2.1l5.42-2.1l5.42,1.57l5.42,3.14"/>
</g>
<g>
	<g transform="translate(-24.399999618530273,-39)">
		<path pointer-events="none" class="st8" d="M-88.5-15.47"/>
	</g>
</g>
<path class="st8" d="M-88.5-15.47"/>
</svg>
