<?xml version="1.0" encoding="utf-8"?>
<!-- Generator: Adobe Illustrator 25.2.1, SVG Export Plug-In . SVG Version: 6.00 Build 0)  -->
<svg version="1.1" id="Layer_1" xmlns="http://www.w3.org/2000/svg" xmlns:xlink="http://www.w3.org/1999/xlink" x="0px" y="0px"
	 viewBox="0 0 612 208" style="enable-background:new 0 0 612 208;" xml:space="preserve">
<style type="text/css">
	.st0{fill:none;}
	.st1{fill:none;stroke:#888888;stroke-miterlimit:10;}
	.st2{font-family:'Monaco';}
	.st3{font-size:12px;}
	.st4{opacity:0;enable-background:new    ;}
	.st5{display:none;}
	.st6{display:none;fill:none;stroke:#888888;stroke-miterlimit:10;}
	.st7{fill:none;stroke:#A9A9A9;stroke-width:2;stroke-miterlimit:10;}
	.st8{fill:#A9A9A9;stroke:#A9A9A9;stroke-width:2;stroke-miterlimit:10;}
	.st9{fill:none;stroke:#FFD700;stroke-width:2;stroke-miterlimit:10;}
	.st10{fill:#FFD700;stroke:#FFD700;stroke-width:2;stroke-miterlimit:10;}
	.st11{display:none;fill:#FFD700;}
</style>
<path class="st0" d="M6,26L6,26L6,26L6,26z"/>
<path class="st0" d="M6,26h600v50H6V26z"/>
<path pointer-events="none" class="st0" d="M6.5,76.5L6.5,76.5L6.5,76.5L6.5,76.5z"/>
<line class="st1" x1="6.5" y1="76.5" x2="6.5" y2="81.5"/>
<line class="st1" x1="56.5" y1="76.5" x2="56.5" y2="81.5"/>
<line class="st1" x1="106.5" y1="76.5" x2="106.5" y2="81.5"/>
<line class="st1" x1="156.5" y1="76.5" x2="156.5" y2="81.5"/>
<line class="st1" x1="206.5" y1="76.5" x2="206.5" y2="81.5"/>
<line class="st1" x1="256.5" y1="76.5" x2="256.5" y2="81.5"/>
<line class="st1" x1="306.5" y1="76.5" x2="306.5" y2="81.5"/>
<line class="st1" x1="356.5" y1="76.5" x2="356.5" y2="81.5"/>
<line class="st1" x1="406.5" y1="76.5" x2="406.5" y2="81.5"/>
<line class="st1" x1="456.5" y1="76.5" x2="456.5" y2="81.5"/>
<line class="st1" x1="506.5" y1="76.5" x2="506.5" y2="81.5"/>
<line class="st1" x1="556.5" y1="76.5" x2="556.5" y2="81.5"/>
<line class="st1" x1="606.5" y1="76.5" x2="606.5" y2="81.5"/>
<text transform="matrix(1 0 0 1 6.5 92.5)" class="st2 st3">0</text>
<text transform="matrix(1 0 0 1 45.6982 92.5)" class="st4 st2 st3">200</text>
<text transform="matrix(1 0 0 1 95.6982 92.5)" class="st2 st3">400</text>
<text transform="matrix(1 0 0 1 145.6982 92.5)" class="st4 st2 st3">600</text>
<text transform="matrix(1 0 0 1 195.6982 92.5)" class="st2 st3">800</text>
<text transform="matrix(1 0 0 1 238.4971 92.5)" class="st4 st2 st3">1,000</text>
<text transform="matrix(1 0 0 1 288.4971 92.5)" class="st2 st3">1,200</text>
<text transform="matrix(1 0 0 1 338.4971 92.5)" class="st4 st2 st3">1,400</text>
<text transform="matrix(1 0 0 1 388.4971 92.5)" class="st2 st3">1,600</text>
<text transform="matrix(1 0 0 1 438.4971 92.5)" class="st4 st2 st3">1,800</text>
<text transform="matrix(1 0 0 1 488.4971 92.5)" class="st2 st3">2,000</text>
<text transform="matrix(1 0 0 1 538.4971 92.5)" class="st4 st2 st3">2,200</text>
<text transform="matrix(1 0 0 1 570.4941 92.5)" class="st2 st3">2,400</text>
<line class="st1" x1="6.5" y1="76.5" x2="606.5" y2="76.5"/>
<text transform="matrix(1 0 0 1 6.5 15.5)" class="st2 st3">Number of Submitted WARN Notices</text>
<path pointer-events="none" class="st5" d="M6.5,76.5"/>
<path pointer-events="none" class="st0" d="M6.5,26.5L6.5,26.5L6.5,26.5L6.5,26.5z"/>
<line class="st1" x1="6.5" y1="26.5" x2="6.5" y2="76.5"/>
<path pointer-events="none" class="st6" d="M6.5,26.5"/>
<path class="st7" d="M48.5,27.2h43.8v22.5H48.5V27.2z"/>
<path class="st8" d="M6,27.2h42.5v22.5H6V27.2z"/>
<path class="st9" d="M372,52.2h204.5v22.5H372V52.2z"/>
<path class="st10" d="M6,52.2h366v22.5H6V52.2z"/>
<path class="st11" d="M6,26"/>
<path class="st0" d="M6,135h600v50H6V135z"/>
<path pointer-events="none" class="st0" d="M6.5,185.5L6.5,185.5L6.5,185.5L6.5,185.5z"/>
<line class="st1" x1="6.5" y1="185.5" x2="6.5" y2="190.5"/>
<line class="st1" x1="46.5" y1="185.5" x2="46.5" y2="190.5"/>
<line class="st1" x1="86.5" y1="185.5" x2="86.5" y2="190.5"/>
<line class="st1" x1="126.5" y1="185.5" x2="126.5" y2="190.5"/>
<line class="st1" x1="166.5" y1="185.5" x2="166.5" y2="190.5"/>
<line class="st1" x1="206.5" y1="185.5" x2="206.5" y2="190.5"/>
<line class="st1" x1="246.5" y1="185.5" x2="246.5" y2="190.5"/>
<line class="st1" x1="286.5" y1="185.5" x2="286.5" y2="190.5"/>
<line class="st1" x1="326.5" y1="185.5" x2="326.5" y2="190.5"/>
<line class="st1" x1="366.5" y1="185.5" x2="366.5" y2="190.5"/>
<line class="st1" x1="406.5" y1="185.5" x2="406.5" y2="190.5"/>
<line class="st1" x1="446.5" y1="185.5" x2="446.5" y2="190.5"/>
<line class="st1" x1="486.5" y1="185.5" x2="486.5" y2="190.5"/>
<line class="st1" x1="526.5" y1="185.5" x2="526.5" y2="190.5"/>
<line class="st1" x1="566.5" y1="185.5" x2="566.5" y2="190.5"/>
<line class="st1" x1="606.5" y1="185.5" x2="606.5" y2="190.5"/>
<text transform="matrix(1 0 0 1 6.5 201.5)" class="st2 st3">0</text>
<text transform="matrix(1 0 0 1 24.8965 201.5)" class="st4 st2 st3">20,000</text>
<text transform="matrix(1 0 0 1 64.8965 201.5)" class="st2 st3">40,000</text>
<text transform="matrix(1 0 0 1 104.8965 201.5)" class="st4 st2 st3">60,000</text>
<text transform="matrix(1 0 0 1 144.8965 201.5)" class="st2 st3">80,000</text>
<text transform="matrix(1 0 0 1 181.2959 201.5)" class="st4 st2 st3">100,000</text>
<text transform="matrix(1 0 0 1 221.2959 201.5)" class="st2 st3">120,000</text>
<text transform="matrix(1 0 0 1 261.2959 201.5)" class="st4 st2 st3">140,000</text>
<text transform="matrix(1 0 0 1 301.2959 201.5)" class="st2 st3">160,000</text>
<text transform="matrix(1 0 0 1 341.2959 201.5)" class="st4 st2 st3">180,000</text>
<text transform="matrix(1 0 0 1 381.2959 201.5)" class="st2 st3">200,000</text>
<text transform="matrix(1 0 0 1 421.2959 201.5)" class="st4 st2 st3">220,000</text>
<text transform="matrix(1 0 0 1 461.2959 201.5)" class="st2 st3">240,000</text>
<text transform="matrix(1 0 0 1 501.2959 201.5)" class="st4 st2 st3">260,000</text>
<text transform="matrix(1 0 0 1 541.2959 201.5)" class="st2 st3">280,000</text>
<text transform="matrix(1 0 0 1 556.0918 201.5)" class="st4 st2 st3">300,000</text>
<line class="st1" x1="6.5" y1="185.5" x2="606.5" y2="185.5"/>
<text transform="matrix(1 0 0 1 6.5 124.5)" class="st2 st3">Number of People Affected</text>
<path pointer-events="none" class="st5" d="M6.5,185.5"/>
<path pointer-events="none" class="st0" d="M6.5,135.5L6.5,135.5L6.5,135.5L6.5,135.5z"/>
<line class="st1" x1="6.5" y1="135.5" x2="6.5" y2="185.5"/>
<path pointer-events="none" class="st6" d="M6.5,135.5"/>
<path class="st7" d="M35,136.2h24.1v22.5H35V136.2z"/>
<path class="st8" d="M6,136.2h29v22.5H6V136.2z"/>
<path class="st9" d="M348.7,161.2h257.2v22.5H348.7V161.2z"/>
<path class="st10" d="M6,161.2h342.7v22.5H6V161.2z"/>
<path class="st11" d="M6,135"/>
<path class="st11" d="M6,26"/>
<text transform="matrix(1 0 0 1 11.2798 67.7762)" class="st2 st3">New York City</text>
<text transform="matrix(1 0 0 1 11.2798 42.7762)" class="st2 st3">NYC</text>
<text transform="matrix(1 0 0 1 379.347 67.7762)" class="st2 st3">Outside New York City</text>
</svg>
