<svg xmlns="http://www.w3.org/2000/svg" data-name="Layer 1" viewBox="0 0 100 125" x="0px" y="0px"><title>A</title><path d="M63.47076,94.37823a3.66381,3.66381,0,0,0,5.70557-3.04211V41.71472l-33.8042,33.8042Z"/><path d="M94.2088,5.79132a2.7014,2.7014,0,0,0-3.82031,0L69.17633,27.00348V8.66364a3.66376,3.66376,0,0,0-5.70557-3.04206L30.0213,28.07227V66.15863l-4.94861,4.94855V28.07227H13.07428a8.07428,8.07428,0,0,0-8.07422,8.07428V63.85321a8.07428,8.07428,0,0,0,8.07422,8.07428h11.1781L5.79132,90.38861a2.70137,2.70137,0,0,0,3.82031,3.82031L94.2088,9.61163A2.7014,2.7014,0,0,0,94.2088,5.79132Z"/><text x="0" y="115" fill="#000000" font-size="5px" font-weight="bold" font-family="'Helvetica Neue', Helvetica, Arial-Unicode, Arial, Sans-serif">Created by Markus</text><text x="0" y="120" fill="#000000" font-size="5px" font-weight="bold" font-family="'Helvetica Neue', Helvetica, Arial-Unicode, Arial, Sans-serif">from the Noun Project</text></svg>