{
	"asset":{
		"version":"2.0",
		"generator":"Created using the official Cinema 4D glTF Exporter 1.000x284978"
	},
	"scenes":[{
		"nodes":[0]
	}],
	"nodes":[{
		"name":"MoText",
		"translation":[0.000056728385970927778,
		0.0,
		0.0],
		"rotation":[0.0,
		0.0,
		0.0,
		-1.0],
		"scale":[1.0,
		1.0,
		1.0],
		"children":[1,
		9]
	},
	{
		"name":"1",
		"translation":[-3.946779251098633,
		0.0,
		0.0],
		"rotation":[0.0,
		0.0,
		0.0,
		-1.0],
		"scale":[1.0,
		1.0,
		1.0],
		"children":[2,
		5]
	},
	{
		"name":"AR",
		"translation":[0.0,
		0.0,
		0.0],
		"rotation":[0.0,
		0.0,
		0.0,
		-1.0],
		"scale":[1.0,
		1.0,
		1.0],
		"children":[3,
		4]
	},
	{
		"name":"A",
		"translation":[0.0,
		0.0,
		0.0],
		"rotation":[0.0,
		0.0,
		0.0,
		-1.0],
		"scale":[1.0,
		1.0,
		1.0],
		"mesh":0
	},
	{
		"name":"R",
		"translation":[1.5720000267028809,
		0.0,
		0.0],
		"rotation":[0.0,
		0.0,
		0.0,
		-1.0],
		"scale":[1.0,
		1.0,
		1.0],
		"mesh":1
	},
	{
		"name":"FOR",
		"translation":[3.634000062942505,
		0.0,
		0.0],
		"rotation":[0.0,
		0.0,
		0.0,
		-1.0],
		"scale":[1.0,
		1.0,
		1.0],
		"children":[6,
		7,
		8]
	},
	{
		"name":"F",
		"translation":[0.0,
		0.0,
		0.0],
		"rotation":[0.0,
		0.0,
		0.0,
		-1.0],
		"scale":[1.0,
		1.0,
		1.0],
		"mesh":2
	},
	{
		"name":"O",
		"translation":[1.284000039100647,
		0.0,
		0.0],
		"rotation":[0.0,
		0.0,
		0.0,
		-1.0],
		"scale":[1.0,
		1.0,
		1.0],
		"mesh":3
	},
	{
		"name":"R",
		"translation":[2.9760000705718996,
		0.0,
		0.0],
		"rotation":[0.0,
		0.0,
		0.0,
		-1.0],
		"scale":[1.0,
		1.0,
		1.0],
		"mesh":4
	},
	{
		"name":"2",
		"translation":[-3.946779251098633,
		-2.502000093460083,
		0.0],
		"rotation":[0.0,
		0.0,
		0.0,
		-1.0],
		"scale":[1.0,
		1.0,
		1.0],
		"children":[10]
	},
	{
		"name":"EVERYONE!",
		"translation":[0.0,
		0.0,
		0.0],
		"rotation":[0.0,
		0.0,
		0.0,
		-1.0],
		"scale":[1.0,
		1.0,
		1.0],
		"children":[11,
		12,
		13,
		14,
		15,
		16,
		17,
		18,
		19]
	},
	{
		"name":"E",
		"translation":[0.0,
		0.0,
		0.0],
		"rotation":[0.0,
		0.0,
		0.0,
		-1.0],
		"scale":[1.0,
		1.0,
		1.0],
		"mesh":5
	},
	{
		"name":"V",
		"translation":[1.343999981880188,
		0.0,
		0.0],
		"rotation":[0.0,
		0.0,
		0.0,
		-1.0],
		"scale":[1.0,
		1.0,
		1.0],
		"mesh":6
	},
	{
		"name":"E",
		"translation":[2.875999927520752,
		0.0,
		0.0],
		"rotation":[0.0,
		0.0,
		0.0,
		-1.0],
		"scale":[1.0,
		1.0,
		1.0],
		"mesh":7
	},
	{
		"name":"R",
		"translation":[4.21999979019165,
		0.0,
		0.0],
		"rotation":[0.0,
		0.0,
		0.0,
		-1.0],
		"scale":[1.0,
		1.0,
		1.0],
		"mesh":8
	},
	{
		"name":"Y",
		"translation":[5.699999809265137,
		0.0,
		0.0],
		"rotation":[0.0,
		0.0,
		0.0,
		-1.0],
		"scale":[1.0,
		1.0,
		1.0],
		"mesh":9
	},
	{
		"name":"O",
		"translation":[7.085999965667725,
		0.0,
		0.0],
		"rotation":[0.0,
		0.0,
		0.0,
		-1.0],
		"scale":[1.0,
		1.0,
		1.0],
		"mesh":10
	},
	{
		"name":"N",
		"translation":[8.777999877929688,
		0.0,
		0.0],
		"rotation":[0.0,
		0.0,
		0.0,
		-1.0],
		"scale":[1.0,
		1.0,
		1.0],
		"mesh":11
	},
	{
		"name":"E",
		"translation":[10.390000343322754,
		0.0,
		0.0],
		"rotation":[0.0,
		0.0,
		0.0,
		-1.0],
		"scale":[1.0,
		1.0,
		1.0],
		"mesh":12
	},
	{
		"name":"!",
		"translation":[11.734000205993653,
		0.0,
		0.0],
		"rotation":[0.0,
		0.0,
		0.0,
		-1.0],
		"scale":[1.0,
		1.0,
		1.0],
		"mesh":13
	}],
	"meshes":[{
		"name":"A",
		"primitives":[{
			"attributes":{
				"POSITION":3,
				"NORMAL":4,
				"TEXCOORD_0":5
			},
			"indices":2,
			"material":0
		}]
	},
	{
		"name":"R",
		"primitives":[{
			"attributes":{
				"POSITION":7,
				"NORMAL":8,
				"TEXCOORD_0":9
			},
			"indices":6,
			"material":0
		}]
	},
	{
		"name":"F",
		"primitives":[{
			"attributes":{
				"POSITION":11,
				"NORMAL":12,
				"TEXCOORD_0":13
			},
			"indices":10,
			"material":0
		}]
	},
	{
		"name":"O",
		"primitives":[{
			"attributes":{
				"POSITION":15,
				"NORMAL":16,
				"TEXCOORD_0":17
			},
			"indices":14,
			"material":0
		}]
	},
	{
		"name":"R",
		"primitives":[{
			"attributes":{
				"POSITION":19,
				"NORMAL":20,
				"TEXCOORD_0":21
			},
			"indices":18,
			"material":0
		}]
	},
	{
		"name":"E",
		"primitives":[{
			"attributes":{
				"POSITION":23,
				"NORMAL":24,
				"TEXCOORD_0":25
			},
			"indices":22,
			"material":0
		}]
	},
	{
		"name":"V",
		"primitives":[{
			"attributes":{
				"POSITION":27,
				"NORMAL":28,
				"TEXCOORD_0":29
			},
			"indices":26,
			"material":0
		}]
	},
	{
		"name":"E",
		"primitives":[{
			"attributes":{
				"POSITION":31,
				"NORMAL":32,
				"TEXCOORD_0":33
			},
			"indices":30,
			"material":0
		}]
	},
	{
		"name":"R",
		"primitives":[{
			"attributes":{
				"POSITION":35,
				"NORMAL":36,
				"TEXCOORD_0":37
			},
			"indices":34,
			"material":0
		}]
	},
	{
		"name":"Y",
		"primitives":[{
			"attributes":{
				"POSITION":39,
				"NORMAL":40,
				"TEXCOORD_0":41
			},
			"indices":38,
			"material":0
		}]
	},
	{
		"name":"O",
		"primitives":[{
			"attributes":{
				"POSITION":43,
				"NORMAL":44,
				"TEXCOORD_0":45
			},
			"indices":42,
			"material":0
		}]
	},
	{
		"name":"N",
		"primitives":[{
			"attributes":{
				"POSITION":47,
				"NORMAL":48,
				"TEXCOORD_0":49
			},
			"indices":46,
			"material":0
		}]
	},
	{
		"name":"E",
		"primitives":[{
			"attributes":{
				"POSITION":51,
				"NORMAL":52,
				"TEXCOORD_0":53
			},
			"indices":50,
			"material":0
		}]
	},
	{
		"name":"!",
		"primitives":[{
			"attributes":{
				"POSITION":55,
				"NORMAL":56,
				"TEXCOORD_0":57
			},
			"indices":54,
			"material":0
		}]
	}],
	"accessors":[{
		"bufferView":0,
		"max":[3.0],
		"type":"SCALAR",
		"componentType":5126,
		"count":91,
		"byteOffset":0,
		"min":[0.0]
	},
	{
		"bufferView":0,
		"max":[1.0,
		1.0,
		10.0],
		"type":"VEC3",
		"componentType":5126,
		"count":91,
		"byteOffset":364,
		"min":[1.0,
		1.0,
		1.0]
	},
	{
		"bufferView":1,
		"max":[65],
		"type":"SCALAR",
		"componentType":5123,
		"count":132,
		"byteOffset":0,
		"min":[0]
	},
	{
		"bufferView":2,
		"max":[1.600000023841858,
		1.399999976158142,
		0.20000000298023225],
		"type":"VEC3",
		"componentType":5126,
		"count":66,
		"byteOffset":0,
		"min":[-0.02800000086426735,
		0.0,
		0.0]
	},
	{
		"bufferView":2,
		"max":[0.9279042482376099,
		1.0,
		1.0],
		"type":"VEC3",
		"componentType":5126,
		"count":66,
		"byteOffset":12,
		"min":[-0.9279041886329651,
		-1.0,
		-1.0]
	},
	{
		"bufferView":2,
		"max":[1.0,
		1.0],
		"type":"VEC2",
		"componentType":5126,
		"count":66,
		"byteOffset":24,
		"min":[0.0,
		0.0]
	},
	{
		"bufferView":3,
		"max":[335],
		"type":"SCALAR",
		"componentType":5123,
		"count":924,
		"byteOffset":0,
		"min":[0]
	},
	{
		"bufferView":4,
		"max":[1.4299999475479127,
		1.399999976158142,
		0.20000000298023225],
		"type":"VEC3",
		"componentType":5126,
		"count":336,
		"byteOffset":0,
		"min":[0.14000000059604646,
		0.0,
		0.0]
	},
	{
		"bufferView":4,
		"max":[1.0,
		1.0,
		1.0],
		"type":"VEC3",
		"componentType":5126,
		"count":336,
		"byteOffset":12,
		"min":[-1.0,
		-1.0,
		-1.0]
	},
	{
		"bufferView":4,
		"max":[1.0,
		1.0],
		"type":"VEC2",
		"componentType":5126,
		"count":336,
		"byteOffset":24,
		"min":[0.0,
		0.0]
	},
	{
		"bufferView":5,
		"max":[59],
		"type":"SCALAR",
		"componentType":5123,
		"count":108,
		"byteOffset":0,
		"min":[0]
	},
	{
		"bufferView":6,
		"max":[1.2380000352859498,
		1.399999976158142,
		0.20000000298023225],
		"type":"VEC3",
		"componentType":5126,
		"count":60,
		"byteOffset":0,
		"min":[0.14000000059604646,
		0.0,
		0.0]
	},
	{
		"bufferView":6,
		"max":[1.0,
		1.0,
		1.0],
		"type":"VEC3",
		"componentType":5126,
		"count":60,
		"byteOffset":12,
		"min":[-1.0,
		-1.0,
		-1.0]
	},
	{
		"bufferView":6,
		"max":[1.0,
		1.0],
		"type":"VEC2",
		"componentType":5126,
		"count":60,
		"byteOffset":24,
		"min":[0.0,
		0.0]
	},
	{
		"bufferView":7,
		"max":[579],
		"type":"SCALAR",
		"componentType":5123,
		"count":1728,
		"byteOffset":0,
		"min":[0]
	},
	{
		"bufferView":8,
		"max":[1.6239999532699586,
		1.4279999732971192,
		0.20000000298023225],
		"type":"VEC3",
		"componentType":5126,
		"count":580,
		"byteOffset":0,
		"min":[0.06800000369548798,
		-0.02800000086426735,
		0.0]
	},
	{
		"bufferView":8,
		"max":[0.9999633431434631,
		0.9999839663505554,
		1.0],
		"type":"VEC3",
		"componentType":5126,
		"count":580,
		"byteOffset":12,
		"min":[-0.9999632239341736,
		-0.999984085559845,
		-1.0]
	},
	{
		"bufferView":8,
		"max":[1.0,
		1.0],
		"type":"VEC2",
		"componentType":5126,
		"count":580,
		"byteOffset":24,
		"min":[0.0,
		0.0]
	},
	{
		"bufferView":9,
		"max":[335],
		"type":"SCALAR",
		"componentType":5123,
		"count":924,
		"byteOffset":0,
		"min":[0]
	},
	{
		"bufferView":10,
		"max":[1.4299999475479127,
		1.399999976158142,
		0.20000000298023225],
		"type":"VEC3",
		"componentType":5126,
		"count":336,
		"byteOffset":0,
		"min":[0.14000000059604646,
		0.0,
		0.0]
	},
	{
		"bufferView":10,
		"max":[1.0,
		1.0,
		1.0],
		"type":"VEC3",
		"componentType":5126,
		"count":336,
		"byteOffset":12,
		"min":[-1.0,
		-1.0,
		-1.0]
	},
	{
		"bufferView":10,
		"max":[1.0,
		1.0],
		"type":"VEC2",
		"componentType":5126,
		"count":336,
		"byteOffset":24,
		"min":[0.0,
		0.0]
	},
	{
		"bufferView":11,
		"max":[71],
		"type":"SCALAR",
		"componentType":5123,
		"count":132,
		"byteOffset":0,
		"min":[0]
	},
	{
		"bufferView":12,
		"max":[1.2640000581741334,
		1.399999976158142,
		0.20000000298023225],
		"type":"VEC3",
		"componentType":5126,
		"count":72,
		"byteOffset":0,
		"min":[0.14000000059604646,
		0.0,
		0.0]
	},
	{
		"bufferView":12,
		"max":[1.0,
		1.0,
		1.0],
		"type":"VEC3",
		"componentType":5126,
		"count":72,
		"byteOffset":12,
		"min":[-1.0,
		-1.0,
		-1.0]
	},
	{
		"bufferView":12,
		"max":[1.0,
		1.0],
		"type":"VEC2",
		"componentType":5126,
		"count":72,
		"byteOffset":24,
		"min":[0.0,
		0.0]
	},
	{
		"bufferView":13,
		"max":[41],
		"type":"SCALAR",
		"componentType":5123,
		"count":72,
		"byteOffset":0,
		"min":[0]
	},
	{
		"bufferView":14,
		"max":[1.559999942779541,
		1.399999976158142,
		0.20000000298023225],
		"type":"VEC3",
		"componentType":5126,
		"count":42,
		"byteOffset":0,
		"min":[-0.02800000086426735,
		0.0,
		0.0]
	},
	{
		"bufferView":14,
		"max":[0.9230769276618958,
		1.0,
		1.0],
		"type":"VEC3",
		"componentType":5126,
		"count":42,
		"byteOffset":12,
		"min":[-0.9201855659484863,
		-1.0,
		-1.0]
	},
	{
		"bufferView":14,
		"max":[1.0,
		1.0],
		"type":"VEC2",
		"componentType":5126,
		"count":42,
		"byteOffset":24,
		"min":[0.0,
		0.0]
	},
	{
		"bufferView":15,
		"max":[71],
		"type":"SCALAR",
		"componentType":5123,
		"count":132,
		"byteOffset":0,
		"min":[0]
	},
	{
		"bufferView":16,
		"max":[1.2640000581741334,
		1.399999976158142,
		0.20000000298023225],
		"type":"VEC3",
		"componentType":5126,
		"count":72,
		"byteOffset":0,
		"min":[0.14000000059604646,
		0.0,
		0.0]
	},
	{
		"bufferView":16,
		"max":[1.0,
		1.0,
		1.0],
		"type":"VEC3",
		"componentType":5126,
		"count":72,
		"byteOffset":12,
		"min":[-1.0,
		-1.0,
		-1.0]
	},
	{
		"bufferView":16,
		"max":[1.0,
		1.0],
		"type":"VEC2",
		"componentType":5126,
		"count":72,
		"byteOffset":24,
		"min":[0.0,
		0.0]
	},
	{
		"bufferView":17,
		"max":[335],
		"type":"SCALAR",
		"componentType":5123,
		"count":924,
		"byteOffset":0,
		"min":[0]
	},
	{
		"bufferView":18,
		"max":[1.4299999475479127,
		1.399999976158142,
		0.20000000298023225],
		"type":"VEC3",
		"componentType":5126,
		"count":336,
		"byteOffset":0,
		"min":[0.14000000059604646,
		0.0,
		0.0]
	},
	{
		"bufferView":18,
		"max":[1.0,
		1.0,
		1.0],
		"type":"VEC3",
		"componentType":5126,
		"count":336,
		"byteOffset":12,
		"min":[-1.0,
		-1.0,
		-1.0]
	},
	{
		"bufferView":18,
		"max":[1.0,
		1.0],
		"type":"VEC2",
		"componentType":5126,
		"count":336,
		"byteOffset":24,
		"min":[0.0,
		0.0]
	},
	{
		"bufferView":19,
		"max":[53],
		"type":"SCALAR",
		"componentType":5123,
		"count":96,
		"byteOffset":0,
		"min":[0]
	},
	{
		"bufferView":20,
		"max":[1.4259999990463257,
		1.399999976158142,
		0.20000000298023225],
		"type":"VEC3",
		"componentType":5126,
		"count":54,
		"byteOffset":0,
		"min":[-0.03999999910593033,
		0.0,
		0.0]
	},
	{
		"bufferView":20,
		"max":[1.0,
		1.0,
		1.0],
		"type":"VEC3",
		"componentType":5126,
		"count":54,
		"byteOffset":12,
		"min":[-1.0,
		-1.0,
		-1.0]
	},
	{
		"bufferView":20,
		"max":[1.0,
		1.0],
		"type":"VEC2",
		"componentType":5126,
		"count":54,
		"byteOffset":24,
		"min":[0.0,
		0.0]
	},
	{
		"bufferView":21,
		"max":[579],
		"type":"SCALAR",
		"componentType":5123,
		"count":1728,
		"byteOffset":0,
		"min":[0]
	},
	{
		"bufferView":22,
		"max":[1.6239999532699586,
		1.4279999732971192,
		0.20000000298023225],
		"type":"VEC3",
		"componentType":5126,
		"count":580,
		"byteOffset":0,
		"min":[0.06800000369548798,
		-0.02800000086426735,
		0.0]
	},
	{
		"bufferView":22,
		"max":[0.9999633431434631,
		0.9999839663505554,
		1.0],
		"type":"VEC3",
		"componentType":5126,
		"count":580,
		"byteOffset":12,
		"min":[-0.9999632239341736,
		-0.999984085559845,
		-1.0]
	},
	{
		"bufferView":22,
		"max":[1.0,
		1.0],
		"type":"VEC2",
		"componentType":5126,
		"count":580,
		"byteOffset":24,
		"min":[0.0,
		0.0]
	},
	{
		"bufferView":23,
		"max":[59],
		"type":"SCALAR",
		"componentType":5123,
		"count":108,
		"byteOffset":0,
		"min":[0]
	},
	{
		"bufferView":24,
		"max":[1.472000002861023,
		1.399999976158142,
		0.20000000298023225],
		"type":"VEC3",
		"componentType":5126,
		"count":60,
		"byteOffset":0,
		"min":[0.14000000059604646,
		0.0,
		0.0]
	},
	{
		"bufferView":24,
		"max":[1.0,
		1.0,
		1.0],
		"type":"VEC3",
		"componentType":5126,
		"count":60,
		"byteOffset":12,
		"min":[-1.0,
		-1.0,
		-1.0]
	},
	{
		"bufferView":24,
		"max":[1.0,
		1.0],
		"type":"VEC2",
		"componentType":5126,
		"count":60,
		"byteOffset":24,
		"min":[0.0,
		0.0]
	},
	{
		"bufferView":25,
		"max":[71],
		"type":"SCALAR",
		"componentType":5123,
		"count":132,
		"byteOffset":0,
		"min":[0]
	},
	{
		"bufferView":26,
		"max":[1.2640000581741334,
		1.399999976158142,
		0.20000000298023225],
		"type":"VEC3",
		"componentType":5126,
		"count":72,
		"byteOffset":0,
		"min":[0.14000000059604646,
		0.0,
		0.0]
	},
	{
		"bufferView":26,
		"max":[1.0,
		1.0,
		1.0],
		"type":"VEC3",
		"componentType":5126,
		"count":72,
		"byteOffset":12,
		"min":[-1.0,
		-1.0,
		-1.0]
	},
	{
		"bufferView":26,
		"max":[1.0,
		1.0],
		"type":"VEC2",
		"componentType":5126,
		"count":72,
		"byteOffset":24,
		"min":[0.0,
		0.0]
	},
	{
		"bufferView":27,
		"max":[297],
		"type":"SCALAR",
		"componentType":5123,
		"count":840,
		"byteOffset":0,
		"min":[0]
	},
	{
		"bufferView":28,
		"max":[0.527999997138977,
		1.399999976158142,
		0.20000000298023225],
		"type":"VEC3",
		"componentType":5126,
		"count":298,
		"byteOffset":0,
		"min":[0.07400000095367432,
		-0.017999999225139619,
		0.0]
	},
	{
		"bufferView":28,
		"max":[0.9999600052833557,
		1.0,
		1.0],
		"type":"VEC3",
		"componentType":5126,
		"count":298,
		"byteOffset":12,
		"min":[-0.999987006187439,
		-1.0,
		-1.0]
	},
	{
		"bufferView":28,
		"max":[1.0,
		1.0],
		"type":"VEC2",
		"componentType":5126,
		"count":298,
		"byteOffset":24,
		"min":[0.0,
		0.0]
	}],
	"bufferViews":[{
		"buffer":0,
		"byteOffset":0,
		"byteLength":1456
	},
	{
		"buffer":1,
		"byteOffset":0,
		"byteLength":264,
		"target":34963
	},
	{
		"buffer":1,
		"byteOffset":264,
		"byteStride":32,
		"byteLength":2112,
		"target":34962
	},
	{
		"buffer":2,
		"byteOffset":0,
		"byteLength":1848,
		"target":34963
	},
	{
		"buffer":2,
		"byteOffset":1848,
		"byteStride":32,
		"byteLength":10752,
		"target":34962
	},
	{
		"buffer":3,
		"byteOffset":0,
		"byteLength":216,
		"target":34963
	},
	{
		"buffer":3,
		"byteOffset":216,
		"byteStride":32,
		"byteLength":1920,
		"target":34962
	},
	{
		"buffer":4,
		"byteOffset":0,
		"byteLength":3456,
		"target":34963
	},
	{
		"buffer":4,
		"byteOffset":3456,
		"byteStride":32,
		"byteLength":18560,
		"target":34962
	},
	{
		"buffer":5,
		"byteOffset":0,
		"byteLength":1848,
		"target":34963
	},
	{
		"buffer":5,
		"byteOffset":1848,
		"byteStride":32,
		"byteLength":10752,
		"target":34962
	},
	{
		"buffer":6,
		"byteOffset":0,
		"byteLength":264,
		"target":34963
	},
	{
		"buffer":6,
		"byteOffset":264,
		"byteStride":32,
		"byteLength":2304,
		"target":34962
	},
	{
		"buffer":7,
		"byteOffset":0,
		"byteLength":144,
		"target":34963
	},
	{
		"buffer":7,
		"byteOffset":144,
		"byteStride":32,
		"byteLength":1344,
		"target":34962
	},
	{
		"buffer":8,
		"byteOffset":0,
		"byteLength":264,
		"target":34963
	},
	{
		"buffer":8,
		"byteOffset":264,
		"byteStride":32,
		"byteLength":2304,
		"target":34962
	},
	{
		"buffer":9,
		"byteOffset":0,
		"byteLength":1848,
		"target":34963
	},
	{
		"buffer":9,
		"byteOffset":1848,
		"byteStride":32,
		"byteLength":10752,
		"target":34962
	},
	{
		"buffer":10,
		"byteOffset":0,
		"byteLength":192,
		"target":34963
	},
	{
		"buffer":10,
		"byteOffset":192,
		"byteStride":32,
		"byteLength":1728,
		"target":34962
	},
	{
		"buffer":11,
		"byteOffset":0,
		"byteLength":3456,
		"target":34963
	},
	{
		"buffer":11,
		"byteOffset":3456,
		"byteStride":32,
		"byteLength":18560,
		"target":34962
	},
	{
		"buffer":12,
		"byteOffset":0,
		"byteLength":216,
		"target":34963
	},
	{
		"buffer":12,
		"byteOffset":216,
		"byteStride":32,
		"byteLength":1920,
		"target":34962
	},
	{
		"buffer":13,
		"byteOffset":0,
		"byteLength":264,
		"target":34963
	},
	{
		"buffer":13,
		"byteOffset":264,
		"byteStride":32,
		"byteLength":2304,
		"target":34962
	},
	{
		"buffer":14,
		"byteOffset":0,
		"byteLength":1680,
		"target":34963
	},
	{
		"buffer":14,
		"byteOffset":1680,
		"byteStride":32,
		"byteLength":9536,
		"target":34962
	}],
	"buffers":[{
		"uri":"data:application/octet-stream;base64,",
		"byteLength":1456
	},
	{
		"uri":"data:application/octet-stream;base64,",
		"byteLength":2376
	},
	{
		"uri":"data:application/octet-stream;base64,",
		"byteLength":12600
	},
	{
		"uri":"data:application/octet-stream;base64,",
		"byteLength":2136
	},
	{
		"uri":"data:application/octet-stream;base64,",
		"byteLength":22016
	},
	{
		"uri":"data:application/octet-stream;base64,",
		"byteLength":12600
	},
	{
		"uri":"data:application/octet-stream;base64,",
		"byteLength":2568
	},
	{
		"uri":"data:application/octet-stream;base64,",
		"byteLength":1488
	},
	{
		"uri":"data:application/octet-stream;base64,",
		"byteLength":2568
	},
	{
		"uri":"data:application/octet-stream;base64,",
		"byteLength":12600
	},
	{
		"uri":"data:application/octet-stream;base64,",
		"byteLength":1920
	},
	{
		"uri":"data:application/octet-stream;base64,",
		"byteLength":22016
	},
	{
		"uri":"data:application/octet-stream;base64,",
		"byteLength":2136
	},
	{
		"uri":"data:application/octet-stream;base64,",
		"byteLength":2568
	},
	{
		"uri":"data:application/octet-stream;base64,",
		"byteLength":11216
	}],
	"materials":[{
		"pbrMetallicRoughness":{
			"baseColorFactor":[0.8,
			0.5200000000000004,
			0.0,
			1.0],
			"metallicFactor":0.0,
			"roughnessFactor":0.5
		},
		"emissiveFactor":[0.0,
		0.0,
		0.0],
		"alphaMode":"OPAQUE",
		"doubleSided":true,
		"name":"Mat.1"
	}],
	"animations":[{
		"samplers":[{
			"input":0,
			"interpolation":"LINEAR",
			"output":1
		}],
		"channels":[{
			"sampler":0,
			"target":{
				"node":0,
				"path":"scale"
			}
		}]
	}]
}