<?xml version="1.0" encoding="utf-8"?>
<!-- Generator: Adobe Illustrator 25.2.1, SVG Export Plug-In . SVG Version: 6.00 Build 0)  -->
<svg version="1.1" id="Layer_1" xmlns="http://www.w3.org/2000/svg" xmlns:xlink="http://www.w3.org/1999/xlink" x="0px" y="0px"
	 viewBox="0 0 612 308" style="enable-background:new 0 0 612 308;" xml:space="preserve">
<style type="text/css">
	.st0{fill:none;}
	.st1{fill:none;stroke:#888888;stroke-miterlimit:10;}
	.st2{font-family:'Monaco';}
	.st3{font-size:12px;}
	.st4{opacity:0;enable-background:new    ;}
	.st5{display:none;}
	.st6{display:none;fill:none;}
	.st7{fill:#FFD700;}
	.st8{display:none;fill:#FFD700;}
</style>
<g transform="translate(6,26)">
	<g>
		<g transform="translate(0,0)">
			<path class="st0" d="M0,0L0,0L0,0L0,0z"/>
			<g>
				<g>
					<g transform="translate(0,0)">
						<path class="st0" d="M0,0h600v100H0V0z"/>
						<g>
							<g>
								<g transform="translate(0.5,100.5)">
									<path pointer-events="none" class="st0" d="M0,0L0,0L0,0L0,0z"/>
									<g>
										<g pointer-events="none">
											<line class="st1" x1="0" y1="0" x2="0" y2="5"/>
											<line class="st1" x1="50" y1="0" x2="50" y2="5"/>
											<line class="st1" x1="100" y1="0" x2="100" y2="5"/>
											<line class="st1" x1="150" y1="0" x2="150" y2="5"/>
											<line class="st1" x1="200" y1="0" x2="200" y2="5"/>
											<line class="st1" x1="250" y1="0" x2="250" y2="5"/>
											<line class="st1" x1="300" y1="0" x2="300" y2="5"/>
											<line class="st1" x1="350" y1="0" x2="350" y2="5"/>
											<line class="st1" x1="400" y1="0" x2="400" y2="5"/>
											<line class="st1" x1="450" y1="0" x2="450" y2="5"/>
											<line class="st1" x1="500" y1="0" x2="500" y2="5"/>
											<line class="st1" x1="550" y1="0" x2="550" y2="5"/>
											<line class="st1" x1="600" y1="0" x2="600" y2="5"/>
										</g>
										<g pointer-events="none">
											<text transform="matrix(1 0 0 1 0 16)" class="st2 st3">0</text>
											<text transform="matrix(1 0 0 1 39.1982 16)" class="st4 st2 st3">100</text>
											<text transform="matrix(1 0 0 1 89.1982 16)" class="st2 st3">200</text>
											<text transform="matrix(1 0 0 1 139.1982 16)" class="st4 st2 st3">300</text>
											<text transform="matrix(1 0 0 1 189.1982 16)" class="st2 st3">400</text>
											<text transform="matrix(1 0 0 1 239.1982 16)" class="st4 st2 st3">500</text>
											<text transform="matrix(1 0 0 1 289.1982 16)" class="st2 st3">600</text>
											<text transform="matrix(1 0 0 1 339.1982 16)" class="st4 st2 st3">700</text>
											<text transform="matrix(1 0 0 1 389.1982 16)" class="st2 st3">800</text>
											<text transform="matrix(1 0 0 1 439.1982 16)" class="st4 st2 st3">900</text>
											<text transform="matrix(1 0 0 1 481.9971 16)" class="st2 st3">1,000</text>
											<text transform="matrix(1 0 0 1 531.9971 16)" class="st4 st2 st3">1,100</text>
											<text transform="matrix(1 0 0 1 563.9941 16)" class="st2 st3">1,200</text>
										</g>
										<g pointer-events="none">
											<line class="st1" x1="0" y1="0" x2="600" y2="0"/>
										</g>
										<g pointer-events="none">
											<text transform="matrix(1 0 0 1 0 -111)" class="st2 st3">Number of WARN Notices Submitted</text>
										</g>
									</g>
									<path pointer-events="none" class="st5" d="M0,0"/>
								</g>
							</g>
							<g>
								<g transform="translate(0.5,0.5)">
									<path pointer-events="none" class="st0" d="M0,0L0,0L0,0L0,0z"/>
									<path pointer-events="none" class="st6" d="M0,0"/>
								</g>
							</g>
							<g>
								<path class="st7" d="M0,61h15v18H0V61z"/>
								<path class="st7" d="M0,41h49.5v18H0V41z"/>
								<path class="st7" d="M0,1h593v18H0V1z"/>
								<path class="st7" d="M0,21h71.5v18H0V21z"/>
								<path class="st7" d="M0,81h3v18H0V81z"/>
							</g>
						</g>
						<path class="st8" d="M0,0"/>
					</g>
				</g>
				<g>
					<g transform="translate(0,159)">
						<path class="st0" d="M0,0h600v100H0V0z"/>
						<g>
							<g>
								<g transform="translate(0.5,100.5)">
									<path pointer-events="none" class="st0" d="M0,0L0,0L0,0L0,0z"/>
									<g>
										<g pointer-events="none">
											<line class="st1" x1="0" y1="0" x2="0" y2="5"/>
											<line class="st1" x1="43" y1="0" x2="43" y2="5"/>
											<line class="st1" x1="86" y1="0" x2="86" y2="5"/>
											<line class="st1" x1="129" y1="0" x2="129" y2="5"/>
											<line class="st1" x1="171" y1="0" x2="171" y2="5"/>
											<line class="st1" x1="214" y1="0" x2="214" y2="5"/>
											<line class="st1" x1="257" y1="0" x2="257" y2="5"/>
											<line class="st1" x1="300" y1="0" x2="300" y2="5"/>
											<line class="st1" x1="343" y1="0" x2="343" y2="5"/>
											<line class="st1" x1="386" y1="0" x2="386" y2="5"/>
											<line class="st1" x1="429" y1="0" x2="429" y2="5"/>
											<line class="st1" x1="471" y1="0" x2="471" y2="5"/>
											<line class="st1" x1="514" y1="0" x2="514" y2="5"/>
											<line class="st1" x1="557" y1="0" x2="557" y2="5"/>
											<line class="st1" x1="600" y1="0" x2="600" y2="5"/>
										</g>
										<g pointer-events="none">
											<text transform="matrix(1 0 0 1 0 16)" class="st2 st3">0</text>
											<text transform="matrix(1 0 0 1 21.2536 16)" class="st4 st2 st3">10,000</text>
											<text transform="matrix(1 0 0 1 64.1108 16)" class="st2 st3">20,000</text>
											<text transform="matrix(1 0 0 1 106.9679 16)" class="st4 st2 st3">30,000</text>
											<text transform="matrix(1 0 0 1 149.8251 16)" class="st2 st3">40,000</text>
											<text transform="matrix(1 0 0 1 192.6822 16)" class="st4 st2 st3">50,000</text>
											<text transform="matrix(1 0 0 1 235.5393 16)" class="st2 st3">60,000</text>
											<text transform="matrix(1 0 0 1 278.3965 16)" class="st4 st2 st3">70,000</text>
											<text transform="matrix(1 0 0 1 321.2537 16)" class="st2 st3">80,000</text>
											<text transform="matrix(1 0 0 1 364.1108 16)" class="st4 st2 st3">90,000</text>
											<text transform="matrix(1 0 0 1 403.3673 16)" class="st2 st3">100,000</text>
											<text transform="matrix(1 0 0 1 446.2245 16)" class="st4 st2 st3">110,000</text>
											<text transform="matrix(1 0 0 1 489.0816 16)" class="st2 st3">120,000</text>
											<text transform="matrix(1 0 0 1 531.9388 16)" class="st4 st2 st3">130,000</text>
											<text transform="matrix(1 0 0 1 549.5918 16)" class="st2 st3">140,000</text>
										</g>
										<g pointer-events="none">
											<line class="st1" x1="0" y1="0" x2="600" y2="0"/>
										</g>
										<g pointer-events="none">
											<text transform="matrix(1 0 0 1 0 -111)" class="st2 st3">Number of People Affected</text>
										</g>
									</g>
									<path pointer-events="none" class="st5" d="M0,0"/>
								</g>
							</g>
							<g>
								<g transform="translate(0.5,0.5)">
									<path pointer-events="none" class="st0" d="M0,0L0,0L0,0L0,0z"/>
									<path pointer-events="none" class="st6" d="M0,0"/>
								</g>
							</g>
							<g>
								<path class="st7" d="M0,61h12.7v18H0V61z"/>
								<path class="st7" d="M0,41h42.2v18H0V41z"/>
								<path class="st7" d="M0,1h577.2v18H0V1z"/>
								<path class="st7" d="M0,21h101.5v18H0V21z"/>
								<path class="st7" d="M0,81h0.9v18H0V81z"/>
							</g>
						</g>
						<path class="st8" d="M0,0"/>
					</g>
				</g>
			</g>
			<path class="st8" d="M0,0"/>
		</g>
	</g>
</g>
<text transform="matrix(1 0 0 1 528.7338 39.8614)" class="st2 st3">Manhattan</text>
<text transform="matrix(1 0 0 1 79.5444 59.921)" class="st2 st3">Queens</text>
<text transform="matrix(1 0 0 1 57.5444 79.9811)" class="st2 st3">Brooklyn</text>
<text transform="matrix(1 0 0 1 24.5444 100.0409)" class="st2 st3">Bronx</text>
<text transform="matrix(1 0 0 1 13.5444 120.1005)" class="st2 st3">Staten Island</text>
<text transform="matrix(1 0 0 1 512.9152 199.6336)" class="st2 st3">Manhattan</text>
<text transform="matrix(1 0 0 1 111.3304 220.4886)" class="st2 st3">Queens</text>
<text transform="matrix(1 0 0 1 51.5714 239.3445)" class="st2 st3">Brooklyn</text>
<text transform="matrix(1 0 0 1 22.5444 260.1999)" class="st2 st3">Bronx</text>
<text transform="matrix(1 0 0 1 10.5444 280.0551)" class="st2 st3">Staten Island</text>
</svg>
